{"title":"The.Imitation.Game.2014.DVDScr.x264.DD5.1-CiAXD","uid":11679725,"size":1155740935,"categoryP":"video","categoryS":"movies","magnet":"?xt=urn:btih:d7060e58243c47481deb514a5424453812aa853a&amp;dn=The.Imitation.Game.2014.DVDScr.x264.DD5.1-CiAXD&amp;tr=udp%3A%2F%2Ftracker.openbittorrent.com%3A80&amp;tr=udp%3A%2F%2Fopen.demonii.com%3A1337&amp;tr=udp%3A%2F%2Ftracker.coppersurfer.tk%3A6969&amp;tr=udp%3A%2F%2Fexodus.desync.com%3A6969","seeders":14,"leechers":0,"uploader":"TvTeam","files":3,"time":1423029481,"description":" &lt;a href=&quot;https://www.torrenting.com&quot; rel=&quot;nofollow&quot; target=&quot;_NEW&quot;&gt;https://www.torrenting.com&lt;/a&gt;\n\nSign up is OPEN - for the time being. Come and have fun.\n\n---------------------------------------------------------------------\n\n.CiA Group Official Paste:\nGeneral\nUnique ID                                : 246198769159024302009807890868623246401 (0xB938287E730B2E29AF606C15E4D60441)\nComplete name                            : D:UsersdwnThe.Imitation.Game.2014.DVDScr.x264.DD5.1-CiAXDThe.Imitation.Game.2014.DVDScr.x264.DD5.1-CiAXD.mkv\nFormat                                   : Matroska\nFormat version                           : Version 4 / Version 2\nFile size                                : 1.08 GiB\nDuration                                 : 1h 53mn\nOverall bit rate                         : 1 353 Kbps\nEncoded date                             : UTC 2015-02-02 07:31:35\nWriting application                      : mkvmerge v7.5.0 ('Glass Culture') 64bit built on Jan  4 2015 16:48:44\nWriting library                          : Lavf55.12.0\n\nVideo\nID                                       : 1\nFormat                                   : AVC\nFormat/Info                              : Advanced Video Codec\nFormat profile                           : &lt;a class=&quot;__cf_email__&quot; href=&quot;/cdn-cgi/l/email-protection&quot; data-cfemail=&quot;5c14353b341c1068726d&quot;&gt;[email&amp;#160;protected]&lt;/a&gt;&lt;script cf-hash='f9e31' type=&quot;text/javascript&quot;&gt;\n/* &lt;![CDATA[ */!function(){try{var t=&quot;currentScript&quot;in document?document.currentScript:function(){for(var t=document.getElementsByTagName(&quot;script&quot;),e=t.length;e--;)if(t[e].getAttribute(&quot;cf-hash&quot;))return t[e]}();if(t&amp;&amp;t.previousSibling){var e,r,n,i,c=t.previousSibling,a=c.getAttribute(&quot;data-cfemail&quot;);if(a){for(e=&quot;&quot;,r=parseInt(a.substr(0,2),16),n=2;a.length-n;n+=2)i=parseInt(a.substr(n,2),16)^r,e+=String.fromCharCode(i);e=document.createTextNode(e),c.parentNode.replaceChild(e,c)}}}catch(u){}}();/* ]]&gt; */&lt;/script&gt;\nFormat settings, CABAC                   : Yes\nFormat settings, ReFrames                : 16 frames\nCodec ID                                 : V_MPEG4/ISO/AVC\nDuration                                 : 1h 53mn\nBit rate                                 : 878 Kbps\nWidth                                    : 720 pixels\nHeight                                   : 304 pixels\nDisplay aspect ratio                     : 2.35:1\nFrame rate mode                          : Constant\nFrame rate                               : 23.976 fps\nColor space                              : YUV\nChroma subsampling                       : 4:2:0\nBit depth                                : 8 bits\nScan type                                : Progressive\nBits/(Pixel*Frame)                       : 0.167\nStream size                              : 715 MiB (65%)\nWriting library                          : x264 core 142 r2479 dd79a61\nEncoding settings                        : cabac=1 / ref=16 / deblock=1:0:0 / analyse=0x3:0x133 / me=tesa / subme=11 / psy=1 / psy_rd=1.00:0.00 / mixed_ref=1 / me_range=24 / chroma_me=1 / trellis=2 / 8x8dct=1 / cqm=0 / deadzone=21,11 / fast_pskip=0 / chroma_qp_offset=-2 / threads=12 / lookahead_threads=2 / sliced_threads=0 / nr=0 / decimate=1 / interlaced=0 / bluray_compat=0 / constrained_intra=0 / bframes=16 / b_pyramid=2 / b_adapt=2 / b_bias=0 / direct=3 / weightb=1 / open_gop=0 / weightp=2 / keyint=240 / keyint_min=24 / scenecut=40 / intra_refresh=0 / rc_lookahead=60 / rc=crf / mbtree=1 / crf=19.0 / qcomp=0.60 / qpmin=0 / qpmax=69 / qpstep=4 / vbv_maxrate=62500 / vbv_bufsize=78125 / crf_max=0.0 / nal_hrd=none / filler=0 / ip_ratio=1.40 / aq=1:1.00\nDefault                                  : Yes\nForced                                   : No\nColor primaries                          : BT.601 NTSC\nTransfer characteristics                 : BT.709\nMatrix coefficients                      : BT.601\nColor range                              : Limited\nDURATION                                 : 01:53:51.450000000\nNUMBER_OF_FRAMES                         : 163791\nNUMBER_OF_BYTES                          : 771769651\n_STATISTICS_WRITING_APP                  : mkvmerge v7.5.0 ('Glass Culture') 64bit built on Jan  4 2015 16:48:44\n_STATISTICS_WRITING_DATE_UTC             : 2015-02-02 07:31:35\n_STATISTICS_TAGS                         : BPS DURATION NUMBER_OF_FRAMES NUMBER_OF_BYTES\n\nAudio\nID                                       : 2\nFormat                                   : AC-3\nFormat/Info                              : Audio Coding 3\nMode extension                           : CM (complete main)\nFormat settings, Endianness              : Big\nCodec ID                                 : A_AC3\nDuration                                 : 1h 53mn\nBit rate mode                            : Constant\nBit rate                                 : 448 Kbps\nChannel(s)                               : 6 channels\nChannel positions                        : Front: L C R, Side: L R, LFE\nSampling rate                            : 48.0 KHz\nBit depth                                : 16 bits\nCompression mode                         : Lossy\nStream size                              : 365 MiB (33%)\nTitle                                    : Surround\nDefault                                  : Yes\nForced                                   : No\nDURATION                                 : 01:53:50.912000000\nNUMBER_OF_FRAMES                         : 213466\nNUMBER_OF_BYTES                          : 382531072\n_STATISTICS_WRITING_APP                  : mkvmerge v7.5.0 ('Glass Culture') 64bit built on Jan  4 2015 16:48:44\n_STATISTICS_WRITING_DATE_UTC             : 2015-02-02 07:31:35\n_STATISTICS_TAGS                         : BPS DURATION NUMBER_OF_FRAMES NUMBER_OF_BYTES","torrent":{"xt":"urn:btih:d7060e58243c47481deb514a5424453812aa853a","amp;dn":"The.Imitation.Game.2014.DVDScr.x264.DD5.1-CiAXD","amp;tr":["udp%3A%2F%2Ftracker.openbittorrent.com%3A80","udp%3A%2F%2Fopen.demonii.com%3A1337","udp%3A%2F%2Ftracker.coppersurfer.tk%3A6969","udp%3A%2F%2Fexodus.desync.com%3A6969"],"infoHash":"d7060e58243c47481deb514a5424453812aa853a","infoHashBuffer":{"type":"Buffer","data":[215,6,14,88,36,60,71,72,29,235,81,74,84,36,69,56,18,170,133,58]},"announce":[],"urlList":[]}}